# xmcd
# 
# Track frame offsets:
#     150
#     50587
#     87685
#     115860
# 
# Disc length: 4484
# 
# Revision: 0
# Processed by: cddbd v1.5.2PL0 Copyright (c) Steve Scherf et al.
# Submitted via: fre:ac v1.0.17
# 
DISCID=32118204
DTITLE=Various Artist - The Problem Of Self
DYEAR=2007
DGENRE=Audiobook
TTITLE0=Randy Knaps - Heartbreak Ridge And New Hope Road
TTITLE1=FWC Choir - Right Now Medley
TTITLE2=Jimmy Swaggart - I Saw a Man
TTITLE3=Jimmy Swaggart - The Problem Of Self
EXTD=
EXTT0=
EXTT1=
EXTT2=
EXTT3=
PLAYORDER=
